<svg xmlns="http://www.w3.org/2000/svg" xmlns:xlink="http://www.w3.org/1999/xlink">
	<symbol id="contact-phone" viewBox="0 0 28.029 28.028">
		<path d="M23.677 28.028L23.121 28c-1.253-.066-7.869-.762-15.1-7.992C.805 12.78.1 6.16.03 4.906L0 4.35l.458-.319a17.061 17.061 0 015.628-2.556l.565-.142.4.422a21.041 21.041 0 014.043 6.065l.275.626-2.433 2.431a13.455 13.455 0 003.36 4.791 13.627 13.627 0 004.856 3.424l2.427-2.436.627.277a20.962 20.962 0 016.065 4.044l.421.4-.141.563A17.066 17.066 0 0124 27.571zM9.436 18.593c5.951 5.95 11.441 7.125 13.238 7.355a15.078 15.078 0 001.784-3.925 18.956 18.956 0 00-4.438-2.975l-2.36 2.368-.6-.215a15.468 15.468 0 01-6.18-4.12 15.321 15.321 0 01-4.055-6.113l-.214-.6 2.368-2.361a19.047 19.047 0 00-2.973-4.439 15.057 15.057 0 00-3.924 1.784c.232 1.8 1.415 7.294 7.355 13.241zm18.593-5.315h-2A11.29 11.29 0 0014.751 2V0a13.294 13.294 0 0113.278 13.278zm-3.611 0h-2c0-4.658-3.01-7.667-7.667-7.667v-2c5.782 0 9.667 3.889 9.667 9.667zm-3.611 0h-2a4.061 4.061 0 00-4.056-4.056v-2a6.063 6.063 0 016.056 6.056z" />
	</symbol>

	<symbol id="benefits-1" viewBox="0 0 60 60">
		<path d="M53.9398 32.5048L52.4378 26.4969C52.8484 26.4097 53.1565 26.0454 53.1565 25.6089V24.6402C53.1565 22.537 51.4454 20.826 49.3424 20.826H42.5011V18.8281C42.5011 17.7932 41.6592 16.9513 40.6242 16.9513H27.9034L35.6337 13.8591C36.0994 13.6729 36.3259 13.1443 36.1397 12.6786C35.9534 12.213 35.4252 11.9864 34.9592 12.1727L28.6297 14.7044C30.5584 13.4669 32.4666 12.105 33.1931 11.1525C34.6074 9.2982 34.2492 6.63903 32.3949 5.22472C30.5406 3.81029 27.8815 4.1686 26.4671 6.0229C25.4338 7.37797 24.0703 11.1855 23.1879 13.8685C22.3054 11.1857 20.942 7.37797 19.9086 6.0229C18.4944 4.1686 15.8351 3.81051 13.9808 5.22472C12.1265 6.63892 11.7684 9.29808 13.1827 11.1525C13.9091 12.1051 15.8172 13.4669 17.7461 14.7044L11.4166 12.1727C10.9507 11.9861 10.4223 12.2129 10.2361 12.6786C10.0497 13.1443 10.2763 13.6729 10.742 13.8591L18.4723 16.9513H5.75152C4.71658 16.9513 3.87467 17.7932 3.87467 18.8281V35.2958C3.87467 35.7973 4.28124 36.204 4.78285 36.204C5.28434 36.204 5.69102 35.7974 5.69102 35.2958V18.8281C5.69102 18.7947 5.7181 18.7676 5.75152 18.7676H40.6241C40.6575 18.7676 40.6846 18.7947 40.6846 18.8281V35.296C40.6846 35.7975 41.0912 36.2042 41.5928 36.2042C42.0943 36.2042 42.501 35.7976 42.501 35.296V34.2665H53.2135C53.2145 34.2665 53.2153 34.2667 53.2164 34.2667C53.2174 34.2667 53.2183 34.2666 53.2193 34.2666C54.5374 34.2676 55.6567 35.1329 56.0409 36.3251H53.217C52.7155 36.3251 52.3089 36.7316 52.3089 37.2332V39.1706C52.3089 40.7396 53.5853 42.0161 55.1544 42.0161H56.1836V46.0119H53.809C53.029 43.7596 50.8879 42.1371 48.3736 42.1371C45.8593 42.1371 43.7181 43.7595 42.9381 46.0119H42.5009V39.1705C42.5009 38.669 42.0943 38.2623 41.5927 38.2623C41.0912 38.2623 40.6845 38.6689 40.6845 39.1705V46.0117H21.8426C21.0625 43.7595 18.9214 42.137 16.4071 42.137C13.8928 42.137 11.7516 43.7594 10.9716 46.0117H5.75152C5.7181 46.0117 5.69102 45.9847 5.69102 45.9513V43.9533H9.6263C10.1278 43.9533 10.5345 43.5467 10.5345 43.0451C10.5345 42.5435 10.1279 42.137 9.6263 42.137H0.908176C0.40668 42.137 0 42.5435 0 43.0451C0 43.5467 0.406566 43.9533 0.908176 43.9533H3.87479V45.9513C3.87479 46.9862 4.71669 47.8281 5.75163 47.8281H10.6572C10.6569 47.8483 10.6556 47.8683 10.6556 47.8886C10.6556 51.0599 13.2358 53.6401 16.4071 53.6401C19.5784 53.6401 22.1586 51.0599 22.1586 47.8886C22.1586 47.8682 22.1572 47.8483 22.157 47.8281H42.6235C42.6233 47.8483 42.622 47.8683 42.622 47.8886C42.622 51.0599 45.2022 53.6401 48.3735 53.6401C51.5448 53.6401 54.125 51.0599 54.125 47.8886C54.125 47.8682 54.1236 47.8483 54.1234 47.8281H57.0917C57.5932 47.8281 57.9999 47.4215 57.9999 46.9199V37.2331C58 34.8413 56.2354 32.8541 53.9398 32.5048ZM19.5863 13.7138C16.004 11.4877 14.9415 10.4635 14.6269 10.051C13.82 8.99302 14.0243 7.47584 15.0824 6.66894C15.5185 6.33635 16.0326 6.1756 16.5429 6.1756C17.2704 6.1756 17.9902 6.50253 18.4645 7.12444C19.343 8.27629 20.7188 12.1531 21.6271 14.9467C21.0141 14.5858 20.3095 14.1634 19.5863 13.7138ZM24.7489 14.9466C25.6572 12.1531 27.033 8.2764 27.9114 7.12433C28.7183 6.0664 30.2354 5.86215 31.2934 6.66894C32.3514 7.47584 32.5557 8.99302 31.7489 10.051C31.4343 10.4634 30.3717 11.4877 26.7897 13.7137C26.0666 14.1632 25.362 14.5857 24.7489 14.9466ZM42.5011 22.6422H49.3424C50.444 22.6422 51.3403 23.5384 51.3403 24.6401V24.7006H42.5011V22.6422ZM42.5011 32.4502V26.5169H50.5707L52.054 32.4502H42.5011ZM16.4071 51.8239C14.2372 51.8239 12.4718 50.0585 12.4718 47.8886C12.4718 45.7187 14.2372 43.9533 16.4071 43.9533C18.577 43.9533 20.3424 45.7187 20.3424 47.8886C20.3424 50.0585 18.577 51.8239 16.4071 51.8239ZM48.3737 51.8239C46.2038 51.8239 44.4384 50.0585 44.4384 47.8886C44.4384 45.7187 46.2038 43.9533 48.3737 43.9533C50.5436 43.9533 52.309 45.7187 52.309 47.8886C52.309 50.0585 50.5436 51.8239 48.3737 51.8239ZM56.1838 40.1996H55.1545C54.5869 40.1996 54.1252 39.7379 54.1252 39.1703V38.1411H56.1836V40.1996H56.1838Z" fill="#7AC751"/>
		<path d="M16.4075 46.0117C15.3725 46.0117 14.5306 46.8536 14.5306 47.8886C14.5306 48.9235 15.3725 49.7654 16.4075 49.7654C17.4424 49.7654 18.2843 48.9235 18.2843 47.8886C18.2843 46.8536 17.4424 46.0117 16.4075 46.0117Z" fill="#7AC751"/>
		<path d="M48.3734 46.0117C47.3385 46.0117 46.4966 46.8536 46.4966 47.8886C46.4966 48.9235 47.3385 49.7654 48.3734 49.7654C49.4084 49.7654 50.2503 48.9235 50.2503 47.8886C50.2503 46.8536 49.4084 46.0117 48.3734 46.0117Z" fill="#7AC751"/>
		<path d="M37.7185 42.137H24.1569C23.6554 42.137 23.2487 42.5435 23.2487 43.0451C23.2487 43.5467 23.6553 43.9533 24.1569 43.9533H37.7185C38.22 43.9533 38.6266 43.5467 38.6266 43.0451C38.6266 42.5435 38.2201 42.137 37.7185 42.137Z" fill="#7AC751"/>
		<path d="M14.4702 38.2622H2.84598C2.34448 38.2622 1.93781 38.6688 1.93781 39.1704C1.93781 39.672 2.34437 40.0786 2.84598 40.0786H14.4702C14.9717 40.0786 15.3784 39.672 15.3784 39.1704C15.3784 38.6688 14.9717 38.2622 14.4702 38.2622Z" fill="#7AC751"/>
		<path d="M14.4697 24.7004H10.5949C10.0934 24.7004 9.68677 25.107 9.68677 25.6086V33.3581C9.68677 33.8596 10.0933 34.2663 10.5949 34.2663C11.0966 34.2663 11.5031 33.8597 11.5031 33.3581V30.3915H13.5011C14.0026 30.3915 14.4092 29.9849 14.4092 29.4833C14.4092 28.9817 14.0027 28.5751 13.5011 28.5751H11.5031V26.5168H14.4697C14.9712 26.5168 15.3779 26.1102 15.3779 25.6086C15.3778 25.1071 14.9712 24.7004 14.4697 24.7004Z" fill="#7AC751"/>
		<path d="M21.6164 30.8173C22.5253 30.222 23.1273 29.1954 23.1273 28.0303C23.1273 26.1942 21.6335 24.7004 19.7974 24.7004H17.3756C16.8741 24.7004 16.4675 25.107 16.4675 25.6086V33.3581C16.4675 33.8596 16.874 34.2663 17.3756 34.2663C17.8773 34.2663 18.2838 33.8597 18.2838 33.3581V31.3601H19.7957L21.4634 33.8617C21.6384 34.1242 21.9263 34.2663 22.2198 34.2663C22.393 34.2663 22.5679 34.2169 22.7226 34.1136C23.1401 33.8354 23.2528 33.2715 22.9745 32.8543L21.6164 30.8173ZM19.7974 29.5439H18.2838V26.5168H19.7974C20.632 26.5168 21.3109 27.1957 21.3109 28.0303C21.3109 28.865 20.632 29.5439 19.7974 29.5439Z" fill="#7AC751"/>
		<path d="M28.9997 32.45H26.0331V30.3885C26.0532 30.3899 26.0732 30.3916 26.0936 30.3916H28.031C28.5325 30.3916 28.9391 29.985 28.9391 29.4834C28.9391 28.9818 28.5326 28.5752 28.031 28.5752H26.0936C26.0731 28.5752 26.0532 28.5769 26.0331 28.5783V26.5168H28.9997C29.5012 26.5168 29.9079 26.1102 29.9079 25.6086C29.9079 25.1071 29.5014 24.7004 28.9997 24.7004H25.125C24.6235 24.7004 24.2168 25.107 24.2168 25.6086V33.3581C24.2168 33.8596 24.6234 34.2663 25.125 34.2663H28.9997C29.5012 34.2663 29.9079 33.8597 29.9079 33.3581C29.9079 32.8565 29.5012 32.45 28.9997 32.45Z" fill="#7AC751"/>
		<path d="M35.781 32.45H32.8144V30.3916H33.8437C34.3452 30.3916 34.7518 29.985 34.7518 29.4834C34.7518 28.9818 34.3453 28.5752 33.8437 28.5752H32.8144V26.5168H35.781C36.2825 26.5168 36.6892 26.1102 36.6892 25.6086C36.6892 25.1071 36.2826 24.7004 35.781 24.7004H31.9062C31.4047 24.7004 30.998 25.107 30.998 25.6086V33.3581C30.998 33.8596 31.4046 34.2663 31.9062 34.2663H35.781C36.2825 34.2663 36.6892 33.8597 36.6892 33.3581C36.6892 32.8565 36.2825 32.45 35.781 32.45Z" fill="#7AC751"/>
	</symbol>

	<symbol id="benefits-2" viewBox="0 0 60 60">
		
		<path d="M7.42459 18.7252C6.4521 19.215 5.83715 20.2095 5.83346 21.2984V28.0651C5.83346 29.1328 6.69904 29.9984 7.76679 29.9984V56.0984C7.76679 57.7 9.06517 58.9984 10.6668 58.9984H49.3335C50.9351 58.9984 52.2335 57.7 52.2335 56.0984V29.9984C53.3012 29.9984 54.1668 29.1328 54.1668 28.0651V21.2984C54.1631 20.2095 53.5482 19.215 52.5757 18.7252C56.597 16.147 58.7942 11.334 58.917 11.0576C59.0499 10.7585 59.0224 10.4126 58.8441 10.1382C58.6657 9.86388 58.3607 9.69838 58.0335 9.69842H54.1668V5.83175C54.167 5.4564 53.9498 5.11488 53.6099 4.95578C53.2699 4.79668 52.8686 4.84875 52.5805 5.08935L49.3528 7.78442C47.881 5.10025 45.6566 2.90483 42.9535 1.46822C42.3384 1.12871 41.6405 0.968309 40.9389 1.00518C34.4642 1.41022 31.3631 6.64278 30.0001 10.1818C28.6313 6.64665 25.5303 1.42762 19.0613 1.02355C18.3601 0.984053 17.6619 1.14285 17.0468 1.48175C14.3484 2.91586 12.1268 5.10584 10.6542 7.78345L7.41879 5.08838C7.13054 4.84829 6.72939 4.79665 6.38973 4.95592C6.05007 5.11519 5.83322 5.4566 5.83346 5.83175V9.69842H1.96679C1.63957 9.69838 1.33454 9.86388 1.1562 10.1382C0.977856 10.4126 0.950408 10.7585 1.08326 11.0576C1.20603 11.334 3.40326 16.147 7.42459 18.7252ZM23.2335 20.3318V28.0651H7.76679V21.2984C7.76679 20.7645 8.19958 20.3318 8.73346 20.3318H23.2335ZM25.0991 14.6439C22.8524 12.7087 21.2871 10.1027 20.6341 7.21022C23.6878 8.54808 25.2838 12.1915 25.8618 13.8135C25.5762 14.0597 25.3202 14.3384 25.0991 14.6439ZM26.1335 17.4318C26.1335 15.8301 27.4318 14.5318 29.0335 14.5318H30.9668C32.5684 14.5318 33.8668 15.8301 33.8668 17.4318V18.3984H26.1335V17.4318ZM34.8335 28.0651H25.1668V20.3318H34.8335V28.0651ZM34.1384 13.8135C34.7184 12.1915 36.3134 8.54808 39.3662 7.21022C38.7137 10.1029 37.1483 12.709 34.9011 14.6439C34.68 14.3384 34.424 14.0597 34.1384 13.8135ZM9.70013 56.0984V29.9984H25.1668V57.0651H10.6668C10.1329 57.0651 9.70013 56.6323 9.70013 56.0984ZM27.1001 57.0651V29.9984H32.9001V57.0651H27.1001ZM50.3001 56.0984C50.3001 56.6323 49.8673 57.0651 49.3335 57.0651H34.8335V29.9984H50.3001V56.0984ZM51.2668 20.3318C51.8007 20.3318 52.2335 20.7645 52.2335 21.2984V28.0651H36.7668V20.3318H51.2668ZM53.2001 11.6318H56.4327C55.089 13.945 51.9145 18.3984 47.4001 18.3984H45.2348C46.9031 17.036 48.3486 15.4216 49.5191 13.6134C50.2791 12.4468 50.4953 11.0078 50.1116 9.66942L52.2335 7.89848V10.6651C52.2335 11.199 52.6663 11.6318 53.2001 11.6318ZM41.0598 2.93175C41.4001 2.91682 41.7377 2.99788 42.0342 3.16568C43.459 3.93902 46.9139 6.14785 48.2131 10.0435C48.5007 10.8848 48.3856 11.8115 47.9009 12.5569C46.8201 14.2089 44.5697 17.1331 41.5325 18.3984H35.8001V17.4318C35.8 17.11 35.7676 16.7891 35.7035 16.4738C39.6668 13.6705 41.0414 8.79072 41.4551 6.74525C41.5562 6.25263 41.391 5.74313 41.0201 5.40352C40.646 5.05359 40.1155 4.92619 39.6233 5.06808C35.4193 6.25225 33.2926 10.5336 32.4284 12.8498C32.0306 12.7206 31.6175 12.6442 31.1998 12.6226C31.9141 9.94975 34.3443 3.35515 41.0598 2.93175ZM11.7872 10.0571C13.0835 6.16622 16.5403 3.95642 17.9651 3.18695C18.2625 3.02065 18.6 2.9397 18.9405 2.95302C25.6501 3.37255 28.0813 9.94782 28.8005 12.6197C28.3834 12.6414 27.971 12.7178 27.5738 12.8469C26.7096 10.5269 24.5829 6.24935 20.3789 5.06518C19.8867 4.92488 19.3569 5.05209 18.9821 5.40062C18.6122 5.74084 18.4482 6.25025 18.55 6.74235C18.9589 8.79072 20.3335 13.6734 24.2968 16.4738C24.2326 16.7891 24.2002 17.11 24.2001 17.4318V18.3984H18.4678C15.4305 17.135 13.1782 14.2137 12.0994 12.5627C11.6156 11.8199 11.5005 10.8958 11.7872 10.0571ZM6.80013 11.6318C7.334 11.6318 7.76679 11.199 7.76679 10.6651V7.89462L9.89346 9.66555C9.50515 11.0066 9.72007 12.4503 10.4822 13.6202C11.6516 15.426 13.0958 17.0381 14.7626 18.3984H12.6001C8.09836 18.3984 4.91899 13.946 3.57049 11.6318H6.80013Z" fill="#7AC751"/>
		<path d="M7.42459 18.7252C6.4521 19.215 5.83715 20.2095 5.83346 21.2984V28.0651C5.83346 29.1328 6.69904 29.9984 7.76679 29.9984V56.0984C7.76679 57.7 9.06517 58.9984 10.6668 58.9984H49.3335C50.9351 58.9984 52.2335 57.7 52.2335 56.0984V29.9984C53.3012 29.9984 54.1668 29.1328 54.1668 28.0651V21.2984C54.1631 20.2095 53.5482 19.215 52.5757 18.7252C56.597 16.147 58.7942 11.334 58.917 11.0576C59.0499 10.7585 59.0224 10.4126 58.8441 10.1382C58.6657 9.86388 58.3607 9.69838 58.0335 9.69842H54.1668V5.83175C54.167 5.4564 53.9498 5.11488 53.6099 4.95578C53.2699 4.79668 52.8686 4.84875 52.5805 5.08935L49.3528 7.78442C47.881 5.10025 45.6566 2.90483 42.9535 1.46822C42.3384 1.12871 41.6405 0.968309 40.9389 1.00518C34.4642 1.41022 31.3631 6.64278 30.0001 10.1818C28.6313 6.64665 25.5303 1.42762 19.0613 1.02355C18.3601 0.984053 17.6619 1.14285 17.0468 1.48175C14.3484 2.91586 12.1268 5.10584 10.6542 7.78345L7.41879 5.08838C7.13054 4.84829 6.72939 4.79665 6.38973 4.95592C6.05007 5.11519 5.83322 5.4566 5.83346 5.83175V9.69842H1.96679C1.63957 9.69838 1.33454 9.86388 1.1562 10.1382C0.977856 10.4126 0.950408 10.7585 1.08326 11.0576C1.20603 11.334 3.40326 16.147 7.42459 18.7252ZM23.2335 20.3318V28.0651H7.76679V21.2984C7.76679 20.7645 8.19958 20.3318 8.73346 20.3318H23.2335ZM25.0991 14.6439C22.8524 12.7087 21.2871 10.1027 20.6341 7.21022C23.6878 8.54808 25.2838 12.1915 25.8618 13.8135C25.5762 14.0597 25.3202 14.3384 25.0991 14.6439ZM26.1335 17.4318C26.1335 15.8301 27.4318 14.5318 29.0335 14.5318H30.9668C32.5684 14.5318 33.8668 15.8301 33.8668 17.4318V18.3984H26.1335V17.4318ZM34.8335 28.0651H25.1668V20.3318H34.8335V28.0651ZM34.1384 13.8135C34.7184 12.1915 36.3134 8.54808 39.3662 7.21022C38.7137 10.1029 37.1483 12.709 34.9011 14.6439C34.68 14.3384 34.424 14.0597 34.1384 13.8135ZM9.70013 56.0984V29.9984H25.1668V57.0651H10.6668C10.1329 57.0651 9.70013 56.6323 9.70013 56.0984ZM27.1001 57.0651V29.9984H32.9001V57.0651H27.1001ZM50.3001 56.0984C50.3001 56.6323 49.8673 57.0651 49.3335 57.0651H34.8335V29.9984H50.3001V56.0984ZM51.2668 20.3318C51.8007 20.3318 52.2335 20.7645 52.2335 21.2984V28.0651H36.7668V20.3318H51.2668ZM53.2001 11.6318H56.4327C55.089 13.945 51.9145 18.3984 47.4001 18.3984H45.2348C46.9031 17.036 48.3486 15.4216 49.5191 13.6134C50.2791 12.4468 50.4953 11.0078 50.1116 9.66942L52.2335 7.89848V10.6651C52.2335 11.199 52.6663 11.6318 53.2001 11.6318ZM41.0598 2.93175C41.4001 2.91682 41.7377 2.99788 42.0342 3.16568C43.459 3.93902 46.9139 6.14785 48.2131 10.0435C48.5007 10.8848 48.3856 11.8115 47.9009 12.5569C46.8201 14.2089 44.5697 17.1331 41.5325 18.3984H35.8001V17.4318C35.8 17.11 35.7676 16.7891 35.7035 16.4738C39.6668 13.6705 41.0414 8.79072 41.4551 6.74525C41.5562 6.25263 41.391 5.74313 41.0201 5.40352C40.646 5.05359 40.1155 4.92619 39.6233 5.06808C35.4193 6.25225 33.2926 10.5336 32.4284 12.8498C32.0306 12.7206 31.6175 12.6442 31.1998 12.6226C31.9141 9.94975 34.3443 3.35515 41.0598 2.93175ZM11.7872 10.0571C13.0835 6.16622 16.5403 3.95642 17.9651 3.18695C18.2625 3.02065 18.6 2.9397 18.9405 2.95302C25.6501 3.37255 28.0813 9.94782 28.8005 12.6197C28.3834 12.6414 27.971 12.7178 27.5738 12.8469C26.7096 10.5269 24.5829 6.24935 20.3789 5.06518C19.8867 4.92488 19.3569 5.05209 18.9821 5.40062C18.6122 5.74084 18.4482 6.25025 18.55 6.74235C18.9589 8.79072 20.3335 13.6734 24.2968 16.4738C24.2326 16.7891 24.2002 17.11 24.2001 17.4318V18.3984H18.4678C15.4305 17.135 13.1782 14.2137 12.0994 12.5627C11.6156 11.8199 11.5005 10.8958 11.7872 10.0571ZM6.80013 11.6318C7.334 11.6318 7.76679 11.199 7.76679 10.6651V7.89462L9.89346 9.66555C9.50515 11.0066 9.72007 12.4503 10.4822 13.6202C11.6516 15.426 13.0958 17.0381 14.7626 18.3984H12.6001C8.09836 18.3984 4.91899 13.946 3.57049 11.6318H6.80013Z" stroke="#7AC751" stroke-width="0.5" mask="url(#path-1-outside-1_2_225)"/>
		<path d="M12.6001 31.8059C11.9971 31.8059 11.5084 32.2947 11.5084 32.8976V34.8309C11.5084 35.4338 11.9971 35.9226 12.6001 35.9226C13.203 35.9226 13.6917 35.4338 13.6917 34.8309V32.8976C13.6917 32.2947 13.203 31.8059 12.6001 31.8059Z" fill="#7AC751" stroke="#7AC751" stroke-width="0.25"/>
		<path d="M12.6001 37.606C11.9971 37.606 11.5084 38.0947 11.5084 38.6976V54.1643C11.5084 54.7672 11.9971 55.256 12.6001 55.256C13.203 55.256 13.6917 54.7672 13.6917 54.1643V38.6976C13.6917 38.0947 13.203 37.606 12.6001 37.606Z" fill="#7AC751" stroke="#7AC751" stroke-width="0.25"/>
		<path d="M47.4003 35.9226C48.0032 35.9226 48.492 35.4338 48.492 34.8309V32.8976C48.492 32.2947 48.0032 31.8059 47.4003 31.8059C46.7974 31.8059 46.3087 32.2947 46.3087 32.8976V34.8309C46.3087 35.4338 46.7974 35.9226 47.4003 35.9226Z" fill="#7AC751" stroke="#7AC751" stroke-width="0.25"/>
		<path d="M47.4003 55.256C48.0032 55.256 48.492 54.7672 48.492 54.1643V38.6976C48.492 38.0947 48.0032 37.606 47.4003 37.606C46.7974 37.606 46.3087 38.0947 46.3087 38.6976V54.1643C46.3087 54.7672 46.7974 55.256 47.4003 55.256Z" fill="#7AC751" stroke="#7AC751" stroke-width="0.25"/>
	</symbol>

	<symbol id="benefits-3" viewBox="0 0 60 60">
		<g clip-path="url(#clip0_2_212)">
		<path d="M55.3638 29.2433V21.0915C55.3638 18.3273 53.2197 16.0793 50.5107 15.8613L42.9404 2.6385C42.2388 1.41557 41.106 0.541509 39.7505 0.178561C38.4014 -0.181914 36.9906 0.00740666 35.7831 0.710192L9.83148 15.8188H5.27357C2.36567 15.8188 0.000888824 18.1834 0.000888824 21.0915V52.7273C0.000888824 55.6352 2.36555 58 5.27357 58H50.0911C52.999 58 55.3638 55.6353 55.3638 52.7273V44.5755C56.8948 44.0296 58 42.5801 58 40.8639V32.9549C58 31.2387 56.8948 29.7892 55.3638 29.2433ZM47.4474 15.8188H35.9582L44.5752 10.802L47.4474 15.8188ZM43.2654 8.51424L30.7187 15.8188H25.5145L41.9641 6.24152L43.2654 8.51424ZM37.1102 2.98859C37.7063 2.63973 38.4026 2.54705 39.0682 2.72475C39.7415 2.90493 40.3027 3.34005 40.6516 3.94891L40.6543 3.95373L20.2751 15.8188H15.0712L37.1102 2.98859ZM52.7273 52.7273C52.7273 54.1806 51.5443 55.3636 50.0911 55.3636H5.27357C3.8203 55.3636 2.63729 54.1806 2.63729 52.7273V21.0915C2.63729 19.6382 3.8203 18.4552 5.27357 18.4552H50.0911C51.5443 18.4552 52.7273 19.6382 52.7273 21.0915V29.0004H44.8184C40.4571 29.0004 36.9094 32.5481 36.9094 36.9094C36.9094 41.2707 40.4571 44.8183 44.8184 44.8183H52.7273V52.7273ZM55.3638 40.8639C55.3638 41.5911 54.7729 42.1821 54.0456 42.1821H44.8184C41.9105 42.1821 39.5457 39.8174 39.5457 36.9094C39.5457 34.0015 41.9104 31.6367 44.8184 31.6367H54.0456C54.7728 31.6367 55.3638 32.2275 55.3638 32.9549V40.8639Z" fill="#7AC751"/>
		<path d="M44.818 34.2732C43.3647 34.2732 42.1817 35.4562 42.1817 36.9095C42.1817 38.3627 43.3647 39.5457 44.818 39.5457C46.2712 39.5457 47.4542 38.3627 47.4542 36.9095C47.4544 35.4562 46.2713 34.2732 44.818 34.2732Z" fill="#7AC751"/>
		</g>
		<defs>
		<clipPath id="clip0_2_212">
		<rect width="60" height="60" fill="white"/>
		</clipPath>
		</defs>
	</symbol>

	<symbol id="benefits-4" viewBox="0 0 60 60">
		<path d="M49.9608 23.9752H49.8172V20.4579C49.8172 9.15933 40.658 0 29.3593 0C18.0606 0 8.90141 9.15933 8.90141 20.4579V23.9752H8.04008C4.88163 23.9752 2.44108 26.7747 2.44108 30.005V38.9777C2.36152 42.1086 4.83519 44.7111 7.96602 44.7907C7.99075 44.7913 8.01535 44.7918 8.04008 44.792H13.3519C14.1043 44.7567 14.6856 44.118 14.6502 43.3656C14.6489 43.3385 14.6469 43.3115 14.644 43.2845V25.6979C14.644 24.8366 14.1415 23.9751 13.3519 23.9751H11.7727V20.4578C11.7727 10.745 19.6466 2.87115 29.3593 2.87115C39.0721 2.87115 46.9459 10.745 46.9459 20.4578V23.9751H45.3667C44.5771 23.9751 44.0747 24.8364 44.0747 25.6979V43.2845C43.9946 44.0335 44.5367 44.7056 45.2857 44.7857C45.3126 44.7886 45.3397 44.7907 45.3667 44.7919H47.0177L46.8741 45.0072C44.7201 47.8698 41.3402 49.5465 37.7578 49.5294C36.9735 45.6839 33.2201 43.2021 29.3746 43.9865C26.086 44.6571 23.715 47.5372 23.6885 50.8934C23.7278 54.8297 26.9302 58 30.8667 57.9997C32.8154 57.9681 34.6728 57.1685 36.035 55.7745C36.954 54.8333 37.5562 53.6288 37.7578 52.3289C42.244 52.3459 46.4748 50.2437 49.1711 46.6581L50.535 44.6482C53.6216 44.4329 55.5597 42.4948 55.5597 39.6952V30.7225C55.5598 27.6361 53.2628 23.9752 49.9608 23.9752ZM11.7727 41.9207H8.04008C6.49438 41.8831 5.27183 40.5997 5.30948 39.054C5.31017 39.0286 5.31113 39.0031 5.31237 38.9776V30.0048C5.31237 28.3539 6.46086 26.8464 8.04008 26.8464H11.7727V41.9207ZM33.9534 53.7648C33.1579 54.6273 32.0402 55.1213 30.8668 55.1287C28.5314 55.0916 26.6361 53.228 26.5599 50.8935C26.5589 48.5545 28.4543 46.6576 30.7933 46.6566C33.1323 46.6557 35.0292 48.551 35.0302 50.8901C35.0302 50.8912 35.0302 50.8924 35.0302 50.8935C35.09 51.9593 34.6992 53.0011 33.9534 53.7648ZM52.6885 39.6955C52.6885 41.6336 50.8222 41.9207 49.9608 41.9207H46.9459V26.8465H49.9608C51.54 26.8465 52.6885 29.0718 52.6885 30.7227V39.6955Z" fill="#7AC751"/>
	</symbol>

	<symbol id="star" viewBox="0 0 12 11">
		<path d="M4.04293 3.85733L4.35029 3.81471L4.49316 3.53926L5.77803 1.06195C5.77805 1.06191 5.77807 1.06187 5.77809 1.06183C5.77964 1.05886 5.7804 1.0583 5.78 1.05872C5.77973 1.05899 5.77993 1.05866 5.78133 1.05787C5.78484 1.0559 5.79447 1.0521 5.80915 1.05215C5.82389 1.05219 5.83441 1.0561 5.83909 1.05874L5.84106 1.06001L5.84149 1.06037L5.84153 1.06042L5.8417 1.06064L5.843 1.06282L5.84302 1.06284L7.12742 3.53926L7.27028 3.81471L7.57765 3.85733L10.4526 4.2559L10.453 4.25596C10.4558 4.25634 10.4583 4.25678 10.4604 4.25724L8.39553 6.17058L8.15447 6.39396L8.2129 6.71737L8.70215 9.42506C8.6948 9.42955 8.68595 9.43251 8.67764 9.43324C8.67049 9.43387 8.66225 9.43316 8.65058 9.42733L8.65049 9.42728L6.07855 8.14173L5.81029 8.00764L5.54203 8.14173L2.97009 9.42728L2.96824 9.42821C2.95679 9.43398 2.94903 9.43456 2.94248 9.43399C2.93447 9.43329 2.92567 9.43035 2.9183 9.42572L3.40767 6.71737L3.46611 6.39396L3.22504 6.17058L1.16022 4.25724C1.16232 4.25678 1.16475 4.25634 1.16752 4.25596L1.16794 4.2559L4.04293 3.85733ZM8.70488 9.44004L9.2953 9.33336C9.38385 9.8255 8.83877 10.1923 8.38223 9.96397L8.70488 9.44004Z" fill="none" stroke-width="1.2"/>
	</symbol>

	<symbol id="card-icon-1" viewBox="0 0 24 24">
		<path d="M11.777 21.1556L3.53614 12.9051C2.44321 11.811 1.82915 10.3271 1.82906 8.77973C1.82897 7.23237 2.44285 5.74836 3.53565 4.65414C4.62845 3.55993 6.11066 2.94516 7.65621 2.94507C9.20175 2.94498 10.684 3.55958 11.777 4.65366C12.8704 3.56081 14.3523 2.94702 15.8974 2.94702C17.4424 2.94702 18.9243 3.56081 20.0178 4.65366C21.1089 5.74865 21.7216 7.2322 21.7216 8.7789C21.7216 10.3256 21.1089 11.8092 20.0178 12.9041L11.777 21.1556ZM7.65607 4.88994C6.88763 4.88991 6.13644 5.11805 5.49752 5.54548C4.8586 5.97292 4.36064 6.58046 4.06663 7.29126C3.77262 8.00206 3.69577 8.78419 3.84579 9.53873C3.99581 10.2933 4.36597 10.9863 4.90945 11.5302L11.777 18.4058L18.6445 11.5302C19.0389 11.1441 19.3467 10.6783 19.5474 10.1638C19.748 9.64933 19.8369 9.09797 19.8082 8.54641C19.7794 7.99486 19.6337 7.45576 19.3806 6.96499C19.1276 6.47422 18.773 6.04303 18.3405 5.70013C17.9081 5.35722 17.4076 5.11046 16.8725 4.97626C16.3374 4.84206 15.7798 4.8235 15.237 4.92182C14.6941 5.02014 14.1784 5.23308 13.7242 5.54647C13.2699 5.85986 12.8876 6.26652 12.6025 6.73937L11.777 8.07345L10.9514 6.73937C10.6106 6.17057 10.1273 5.70085 9.54921 5.37678C8.97116 5.0527 8.31854 4.88555 7.65607 4.89189V4.88994Z" />
	</symbol>

	<symbol id="card-icon-2" viewBox="0 0 20 21">
		<path d="M18.6798 16.1669H17.0611V14.5463C17.0611 14.3314 16.9758 14.1253 16.824 13.9733C16.6723 13.8213 16.4664 13.736 16.2517 13.736C16.0371 13.736 15.8312 13.8213 15.6794 13.9733C15.5277 14.1253 15.4424 14.3314 15.4424 14.5463V16.1669H13.8237C13.609 16.1669 13.4032 16.2522 13.2514 16.4042C13.0996 16.5562 13.0143 16.7623 13.0143 16.9772C13.0143 17.1921 13.0996 17.3982 13.2514 17.5501C13.4032 17.7021 13.609 17.7875 13.8237 17.7875H15.4424V19.4081C15.4424 19.623 15.5277 19.8291 15.6794 19.981C15.8312 20.133 16.0371 20.2184 16.2517 20.2184C16.4664 20.2184 16.6723 20.133 16.824 19.981C16.9758 19.8291 17.0611 19.623 17.0611 19.4081V17.7875H18.6798C18.8945 17.7875 19.1003 17.7021 19.2521 17.5501C19.4039 17.3982 19.4892 17.1921 19.4892 16.9772C19.4892 16.7623 19.4039 16.5562 19.2521 16.4042C19.1003 16.2522 18.8945 16.1669 18.6798 16.1669Z" />
		<path d="M17.0611 5.63293H14.6331C14.6331 4.3435 14.1214 3.10688 13.2107 2.19511C12.3 1.28334 11.0649 0.771118 9.77694 0.771118C8.48902 0.771118 7.25385 1.28334 6.34315 2.19511C5.43245 3.10688 4.92082 4.3435 4.92082 5.63293H2.49277C1.84881 5.63293 1.23122 5.88904 0.77587 6.34492C0.320521 6.80081 0.0647087 7.41912 0.0647087 8.06383L0.0647087 16.1668C0.0659938 17.241 0.492761 18.2708 1.2514 19.0303C2.01003 19.7898 3.0386 20.2171 4.11147 20.2184H11.3956C11.6103 20.2184 11.8162 20.133 11.9679 19.981C12.1197 19.8291 12.205 19.623 12.205 19.4081C12.205 19.1931 12.1197 18.987 11.9679 18.8351C11.8162 18.6831 11.6103 18.5978 11.3956 18.5978H4.11147C3.46751 18.5978 2.84992 18.3416 2.39458 17.8858C1.93923 17.4299 1.68341 16.8116 1.68341 16.1668V8.06383C1.68341 7.84893 1.76868 7.64282 1.92047 7.49086C2.07225 7.3389 2.27811 7.25353 2.49277 7.25353H4.92082V8.87413C4.92082 9.08904 5.00609 9.29514 5.15788 9.4471C5.30966 9.59906 5.51552 9.68443 5.73018 9.68443C5.94483 9.68443 6.15069 9.59906 6.30248 9.4471C6.45426 9.29514 6.53953 9.08904 6.53953 8.87413V7.25353H13.0143V8.87413C13.0143 9.08904 13.0996 9.29514 13.2514 9.4471C13.4032 9.59906 13.609 9.68443 13.8237 9.68443C14.0384 9.68443 14.2442 9.59906 14.396 9.4471C14.5478 9.29514 14.6331 9.08904 14.6331 8.87413V7.25353H17.0611C17.2758 7.25353 17.4816 7.3389 17.6334 7.49086C17.7852 7.64282 17.8705 7.84893 17.8705 8.06383V12.1153C17.8705 12.3302 17.9557 12.5363 18.1075 12.6883C18.2593 12.8403 18.4652 12.9256 18.6798 12.9256C18.8945 12.9256 19.1003 12.8403 19.2521 12.6883C19.4039 12.5363 19.4892 12.3302 19.4892 12.1153V8.06383C19.4892 7.41912 19.2334 6.80081 18.778 6.34492C18.3227 5.88904 17.7051 5.63293 17.0611 5.63293ZM6.53953 5.63293C6.53953 4.77331 6.88061 3.94889 7.48774 3.34105C8.09488 2.7332 8.91833 2.39172 9.77694 2.39172C10.6356 2.39172 11.459 2.7332 12.0661 3.34105C12.6733 3.94889 13.0143 4.77331 13.0143 5.63293H6.53953Z" />
	</symbol>

	<symbol id="card-icon-3" viewBox="0 0 27 27">
		<path d="M7.86464 7.43722C8.62512 6.61688 9.50914 6.00026 10.4509 5.57618C13.5807 4.16691 17.3897 4.89416 19.7576 7.59891L21.3933 6.19766C21.4842 6.11981 21.63 6.19183 21.6387 6.31382L22.0455 11.8018C22.0505 11.8932 21.9662 11.9654 21.88 11.9436L16.5301 10.696C16.4082 10.6653 16.3625 10.5131 16.4534 10.4353L18.0858 9.03678C16.5209 7.26501 14.1035 6.67947 11.9755 7.35998C11.171 7.6158 10.4104 8.04792 9.75614 8.67029C8.85664 9.52531 8.29282 10.6218 8.06947 11.7812C7.95174 12.3998 7.34542 12.7955 6.73261 12.6507C6.14944 12.5143 5.78532 11.937 5.90071 11.3485C6.17247 9.91684 6.82964 8.55465 7.86464 7.43722ZM19.3205 14.4739C19.1032 15.6338 18.5361 16.7331 17.6338 17.5848C16.9764 18.21 16.213 18.6389 15.4145 18.8952C13.2865 19.5757 10.8659 18.9929 9.3042 17.2184L10.9366 15.8199C11.0275 15.742 10.979 15.5866 10.8599 15.5591L5.5072 14.3083C5.41781 14.2892 5.33343 14.3615 5.34169 14.4501L5.7457 19.9348C5.75718 20.0601 5.90028 20.1288 5.99115 20.051L7.62682 18.6497C9.99149 21.3573 13.8033 22.0878 16.9335 20.6725C17.8753 20.2484 18.7565 19.6285 19.5198 18.8114C20.5576 17.6972 21.2147 16.335 21.4865 14.9034C21.5991 14.3117 21.2378 13.7376 20.6546 13.6012C20.0446 13.4597 19.4383 13.8553 19.3205 14.4739Z"  stroke="white" stroke-width="0.3"/>
	</symbol>

	<symbol id="card-icon-4" viewBox="0 0 20 20">
		<g clip-path="url(#clip0_2_384)">
		<path d="M18.8992 7.69511C17.6439 5.64829 14.7885 2.21423 9.77697 2.21423C4.76546 2.21423 1.91006 5.64829 0.654754 7.69511C0.266692 8.32351 0.0611382 9.0477 0.0611382 9.7865C0.0611382 10.5253 0.266692 11.2495 0.654754 11.8779C1.91006 13.9247 4.76546 17.3588 9.77697 17.3588C14.7885 17.3588 17.6439 13.9247 18.8992 11.8779C19.2872 11.2495 19.4928 10.5253 19.4928 9.7865C19.4928 9.0477 19.2872 8.32351 18.8992 7.69511ZM17.5192 11.0295C16.4412 12.7846 14.001 15.7382 9.77697 15.7382C5.55296 15.7382 3.11276 12.7846 2.0347 11.0295C1.80414 10.656 1.68203 10.2256 1.68203 9.7865C1.68203 9.34742 1.80414 8.91701 2.0347 8.5435C3.11276 6.78839 5.55296 3.83484 9.77697 3.83484C14.001 3.83484 16.4412 6.78514 17.5192 8.5435C17.7498 8.91701 17.8719 9.34742 17.8719 9.7865C17.8719 10.2256 17.7498 10.656 17.5192 11.0295Z" />
		<path d="M9.77692 5.73499C8.97655 5.73499 8.19415 5.9726 7.52866 6.41779C6.86317 6.86297 6.34449 7.49573 6.0382 8.23605C5.73191 8.97636 5.65177 9.79099 5.80792 10.5769C5.96406 11.3628 6.34948 12.0847 6.91543 12.6513C7.48138 13.218 8.20244 13.6038 8.98744 13.7602C9.77243 13.9165 10.5861 13.8362 11.3255 13.5296C12.065 13.2229 12.697 12.7037 13.1417 12.0374C13.5863 11.3711 13.8237 10.5878 13.8237 9.78649C13.8224 8.71236 13.3956 7.68259 12.637 6.92307C11.8784 6.16354 10.8498 5.73627 9.77692 5.73499ZM9.77692 12.2174C9.2967 12.2174 8.82726 12.0748 8.42796 11.8077C8.02867 11.5406 7.71746 11.1609 7.53369 10.7168C7.34991 10.2726 7.30183 9.7838 7.39552 9.31225C7.4892 8.8407 7.72045 8.40755 8.06002 8.06758C8.39959 7.72762 8.83223 7.49609 9.30323 7.4023C9.77423 7.3085 10.2624 7.35664 10.7061 7.54063C11.1498 7.72462 11.529 8.03619 11.7958 8.43595C12.0626 8.83571 12.205 9.30571 12.205 9.78649C12.205 10.4312 11.9492 11.0495 11.4938 11.5054C11.0385 11.9613 10.4209 12.2174 9.77692 12.2174Z" />
		</g>
		<defs>
		<clipPath id="clip0_2_384">
		<rect width="19.4245" height="19.4472" fill="white" transform="translate(0.0647087 0.0628662)"/>
		</clipPath>
		</defs>
	</symbol>

	<symbol id="ic-facebook" viewBox="0 0 10 18">
		<path d="M2.96583 17.795V9.84283H0.863098V6.97965H2.96583V4.53413C2.96583 2.61242 4.20792 0.847656 7.06995 0.847656C8.22875 0.847656 9.08562 0.958746 9.08562 0.958746L9.0181 3.63246C9.0181 3.63246 8.14423 3.62396 7.19062 3.62396C6.15852 3.62396 5.99317 4.09959 5.99317 4.88901V6.97965H9.10015L8.96496 9.84283H5.99317V17.795H2.96583Z"/>
	</symbol>

	<symbol id="ic-twitter" viewBox="0 0 18 15">
		<path d="M17.7737 2.17796C17.1505 2.4468 16.4723 2.64029 15.7737 2.71565C16.499 2.28475 17.0421 1.60402 17.3012 0.80115C16.6206 1.20602 15.875 1.48993 15.0975 1.64027C14.7725 1.29286 14.3795 1.0161 13.9429 0.827235C13.5063 0.638367 13.0355 0.541438 12.5598 0.542489C10.6351 0.542489 9.0872 2.1026 9.0872 4.0171C9.0872 4.28594 9.11979 4.55479 9.17275 4.81345C6.29082 4.66273 3.7205 3.28592 2.01171 1.17794C1.70035 1.70975 1.53719 2.31528 1.5392 2.93154C1.5392 4.13726 2.15225 5.20042 3.08709 5.82569C2.53617 5.80399 1.99815 5.65256 1.5168 5.38372V5.42649C1.5168 7.11491 2.7103 8.51413 4.30096 8.83593C4.0023 8.9135 3.69506 8.95319 3.38649 8.95405C3.16041 8.95405 2.94656 8.93165 2.73067 8.9011C3.17059 10.2779 4.45168 11.2779 5.97717 11.3105C4.78366 12.2454 3.28872 12.7953 1.66547 12.7953C1.37423 12.7953 1.10538 12.7851 0.826355 12.7525C2.3661 13.7403 4.19302 14.3106 6.16047 14.3106C12.5476 14.3106 16.0425 9.01923 16.0425 4.42647C16.0425 4.27576 16.0425 4.12504 16.0323 3.97433C16.7085 3.47941 17.3012 2.86636 17.7737 2.17796Z"/>
	</symbol>

	<symbol id="ic-instagram" viewBox="0 0 17 17">
		<path d="M8.07435 6.06059C6.59618 6.06059 5.38988 7.26689 5.38988 8.74507C5.38988 10.2232 6.59618 11.4295 8.07435 11.4295C9.55253 11.4295 10.7588 10.2232 10.7588 8.74507C10.7588 7.26689 9.55253 6.06059 8.07435 6.06059ZM16.1258 8.74507C16.1258 7.63342 16.1358 6.53184 16.0734 5.4222C16.011 4.13333 15.717 2.98945 14.7745 2.04697C13.83 1.10247 12.6881 0.810457 11.3992 0.748028C10.2876 0.685598 9.186 0.695667 8.07637 0.695667C6.96472 0.695667 5.86313 0.685598 4.7535 0.748028C3.46463 0.810457 2.32075 1.10448 1.37827 2.04697C0.433766 2.99147 0.141756 4.13333 0.0793265 5.4222C0.0168969 6.53385 0.0269662 7.63543 0.0269662 8.74507C0.0269662 9.85471 0.0168969 10.9583 0.0793265 12.0679C0.141756 13.3568 0.43578 14.5007 1.37827 15.4432C2.32277 16.3877 3.46463 16.6797 4.7535 16.7421C5.86515 16.8045 6.96673 16.7945 8.07637 16.7945C9.18802 16.7945 10.2896 16.8045 11.3992 16.7421C12.6881 16.6797 13.832 16.3857 14.7745 15.4432C15.719 14.4987 16.011 13.3568 16.0734 12.0679C16.1379 10.9583 16.1258 9.85672 16.1258 8.74507ZM8.07435 12.8755C5.78862 12.8755 3.94393 11.0308 3.94393 8.74507C3.94393 6.45934 5.78862 4.61464 8.07435 4.61464C10.3601 4.61464 12.2048 6.45934 12.2048 8.74507C12.2048 11.0308 10.3601 12.8755 8.07435 12.8755ZM12.3739 5.41011C11.8403 5.41011 11.4093 4.97915 11.4093 4.44548C11.4093 3.9118 11.8403 3.48084 12.3739 3.48084C12.9076 3.48084 13.3386 3.9118 13.3386 4.44548C13.3387 4.5722 13.3139 4.69771 13.2655 4.81482C13.2171 4.93192 13.146 5.03833 13.0564 5.12793C12.9668 5.21754 12.8604 5.28859 12.7433 5.33701C12.6262 5.38543 12.5007 5.41027 12.3739 5.41011Z"/>
	</symbol>

	<symbol id="ic-pinterset" viewBox="0 0 14 18">
		<path d="M0.921172 6.92662C0.921172 6.19391 1.04925 5.5017 1.30165 4.85564C1.5428 4.22813 1.90108 3.6522 2.35739 3.15855C2.81278 2.67137 3.33389 2.25011 3.90568 1.90692C4.49233 1.55201 5.12745 1.28426 5.79113 1.11206C6.46282 0.935681 7.15446 0.846733 7.84892 0.847416C8.92161 0.847416 9.9199 1.07439 10.8457 1.52644C11.7594 1.97025 12.5371 2.65135 13.0975 3.49853C13.6757 4.36026 13.963 5.33501 13.963 6.42182C13.963 7.07353 13.8989 7.71112 13.768 8.33458C13.6395 8.95769 13.4352 9.56273 13.1596 10.1362C12.897 10.6913 12.5536 11.2045 12.1406 11.6591C11.7256 12.1064 11.2229 12.4635 10.6639 12.7082C10.057 12.9742 9.40053 13.1081 8.73796 13.1009C8.27743 13.1009 7.81784 12.9926 7.3639 12.7751C6.90996 12.5585 6.58411 12.2609 6.38822 11.8794C6.31947 12.1441 6.22529 12.5265 6.10003 13.0265C5.97948 13.5257 5.89849 13.8478 5.8627 13.9937C5.82503 14.1388 5.75534 14.3808 5.65363 14.7161C5.58465 14.9641 5.49616 15.2063 5.38899 15.4403L5.06501 16.0751C4.92491 16.3475 4.76828 16.611 4.59601 16.8643C4.42554 17.111 4.21458 17.4058 3.96313 17.7449L3.8228 17.7948L3.72957 17.6931C3.62879 16.626 3.577 15.9875 3.577 15.7765C3.577 15.1521 3.6514 14.4515 3.79832 13.6735C3.94241 12.8966 4.17032 11.9199 4.4764 10.7455C4.78248 9.57208 4.95765 8.88176 5.00474 8.67739C4.78907 8.23758 4.67982 7.66309 4.67982 6.95675C4.67982 6.39263 4.85594 5.86429 5.20911 5.36703C5.56321 4.87165 6.01056 4.62396 6.55303 4.62396C6.96835 4.62396 7.29044 4.76146 7.52118 5.0374C7.75286 5.3124 7.86587 5.65898 7.86587 6.08184C7.86587 6.53013 7.71707 7.17902 7.41758 8.02756C7.1181 8.87705 6.9693 9.51087 6.9693 9.93184C6.9693 10.3585 7.12186 10.7154 7.427 10.9951C7.72813 11.275 8.12636 11.4266 8.53736 11.418C8.91031 11.418 9.25594 11.3332 9.57709 11.1628C9.89322 10.9973 10.1669 10.761 10.3767 10.4724C10.8336 9.84548 11.1594 9.13277 11.3345 8.37696C11.4249 7.97953 11.4946 7.60187 11.5379 7.24682C11.584 6.88989 11.6038 6.55273 11.6038 6.23252C11.6038 5.05812 11.2309 4.14271 10.4897 3.48723C9.74473 2.83175 8.77469 2.50589 7.58145 2.50589C6.22435 2.50589 5.0895 2.94476 4.18068 3.82533C3.27092 4.70307 2.81321 5.81908 2.81321 7.17242C2.81321 7.47097 2.85842 7.75915 2.94412 8.03792C3.02794 8.31575 3.11929 8.53706 3.21818 8.70093C3.31612 8.86198 3.40842 9.01926 3.49224 9.16429C3.577 9.30933 3.62126 9.41292 3.62126 9.47508C3.62126 9.66532 3.57135 9.91301 3.47058 10.2191C3.36604 10.5252 3.24266 10.6777 3.09386 10.6777C3.07974 10.6777 3.02135 10.6674 2.91963 10.6457C2.56737 10.5405 2.24925 10.344 1.99763 10.0759C1.73057 9.79816 1.51982 9.47131 1.37699 9.11343C1.23458 8.75683 1.12365 8.38844 1.04549 8.01249C0.961039 7.65676 0.919306 7.29223 0.921172 6.92662Z"/>
	</symbol>

</svg>
