<svg width="147" height="40" fill="none" xmlns="http://www.w3.org/2000/svg"><path d="M39.448 30.221a.555.555 0 01-.408-.168.555.555 0 01-.168-.408V14.021a.64.64 0 01.144-.432.585.585 0 01.432-.168h10.416c.176 0 .32.056.432.168a.585.585 0 01.168.432v1.68c0 .176-.056.32-.168.432a.64.64 0 01-.432.144H42.16v4.56h7.224c.176 0 .32.056.432.168a.585.585 0 01.168.432v1.68c0 .176-.056.32-.168.432a.64.64 0 01-.432.144H42.16v5.952c0 .176-.056.32-.168.432a.64.64 0 01-.432.144h-2.112zm17.995.24c-1.472 0-2.632-.48-3.48-1.44-.848-.976-1.272-2.296-1.272-3.96v-6.744c0-.16.056-.296.168-.408a.555.555 0 01.408-.168h2.112c.176 0 .312.056.408.168a.508.508 0 01.168.408v6.6c0 1.984.872 2.976 2.616 2.976.832 0 1.488-.264 1.968-.792.496-.528.744-1.256.744-2.184v-6.6c0-.16.056-.296.168-.408a.555.555 0 01.408-.168h2.112c.176 0 .312.056.408.168a.508.508 0 01.168.408v11.328c0 .16-.056.296-.168.408a.508.508 0 01-.408.168h-1.944a.555.555 0 01-.408-.168.555.555 0 01-.168-.408v-.984c-.896 1.2-2.232 1.8-4.008 1.8zm10.85-.24a.555.555 0 01-.408-.168.555.555 0 01-.168-.408V18.341c0-.16.056-.296.168-.408a.523.523 0 01.408-.192h1.944c.176 0 .32.056.432.168a.585.585 0 01.168.432v.984a3.807 3.807 0 011.44-1.176c.592-.272 1.264-.408 2.016-.408h.984c.176 0 .312.056.408.168a.508.508 0 01.168.408v1.728c0 .16-.056.296-.168.408a.508.508 0 01-.408.168h-1.872c-.752 0-1.344.216-1.776.648-.432.432-.648 1.024-.648 1.776v6.6c0 .16-.056.296-.168.408a.585.585 0 01-.432.168h-2.088zm10.008 0a.555.555 0 01-.408-.168.555.555 0 01-.168-.408V18.317c0-.16.056-.296.168-.408a.555.555 0 01.408-.168h1.968c.16 0 .296.056.408.168a.555.555 0 01.168.408v.984c.944-1.2 2.28-1.8 4.008-1.8 1.472 0 2.64.488 3.504 1.464.864.96 1.296 2.272 1.296 3.936v6.744c0 .16-.056.296-.168.408a.508.508 0 01-.408.168h-2.112a.555.555 0 01-.408-.168.555.555 0 01-.168-.408v-6.6c0-.944-.232-1.672-.696-2.184-.448-.528-1.104-.792-1.968-.792-.848 0-1.52.264-2.016.792-.48.528-.72 1.256-.72 2.184v6.6c0 .16-.056.296-.168.408a.508.508 0 01-.408.168H78.3zm14.88-14.544a.555.555 0 01-.408-.168.555.555 0 01-.168-.408v-1.728c0-.16.056-.296.168-.408a.555.555 0 01.408-.168h2.184c.16 0 .296.056.408.168a.523.523 0 01.192.408v1.728c0 .16-.056.296-.168.408a.585.585 0 01-.432.168h-2.184zm.096 14.544a.555.555 0 01-.408-.168.555.555 0 01-.168-.408V18.317c0-.16.056-.296.168-.408a.555.555 0 01.408-.168h1.992c.176 0 .312.056.408.168a.508.508 0 01.168.408v11.328c0 .16-.056.296-.168.408a.508.508 0 01-.408.168h-1.992zm6.352 0a.555.555 0 01-.408-.168.555.555 0 01-.168-.408V13.757c0-.176.056-.312.168-.408a.555.555 0 01.408-.168h1.944c.176 0 .312.056.408.168a.508.508 0 01.168.408v8.208l4.032-3.816a3 3 0 00.24-.192.899.899 0 01.288-.168c.096-.032.216-.048.36-.048h2.232c.16 0 .288.048.384.144a.519.519 0 01.144.384c0 .144-.08.288-.24.432l-4.944 4.632 5.544 5.952c.16.16.24.296.24.408a.48.48 0 01-.168.384.488.488 0 01-.36.144h-2.28c-.224 0-.392-.024-.504-.072a2.812 2.812 0 01-.384-.336l-4.584-4.824v4.656c0 .16-.056.296-.168.408a.508.508 0 01-.408.168h-1.944zm13.076-14.544a.555.555 0 01-.408-.168.555.555 0 01-.168-.408v-1.728c0-.16.056-.296.168-.408a.555.555 0 01.408-.168h2.184c.16 0 .296.056.408.168a.523.523 0 01.192.408v1.728c0 .16-.056.296-.168.408a.585.585 0 01-.432.168h-2.184zm.096 14.544a.555.555 0 01-.408-.168.555.555 0 01-.168-.408V18.317c0-.16.056-.296.168-.408a.555.555 0 01.408-.168h1.992c.176 0 .312.056.408.168a.508.508 0 01.168.408v11.328c0 .16-.056.296-.168.408a.508.508 0 01-.408.168h-1.992zm6.328 0a.555.555 0 01-.408-.168.555.555 0 01-.168-.408V18.317c0-.16.056-.296.168-.408a.555.555 0 01.408-.168h1.968c.16 0 .296.056.408.168a.555.555 0 01.168.408v.984c.944-1.2 2.28-1.8 4.008-1.8 1.472 0 2.64.488 3.504 1.464.864.96 1.296 2.272 1.296 3.936v6.744c0 .16-.056.296-.168.408a.508.508 0 01-.408.168h-2.112a.555.555 0 01-.408-.168.555.555 0 01-.168-.408v-6.6c0-.944-.232-1.672-.696-2.184-.448-.528-1.104-.792-1.968-.792-.848 0-1.52.264-2.016.792-.48.528-.72 1.256-.72 2.184v6.6c0 .16-.056.296-.168.408a.508.508 0 01-.408.168h-2.112zm20.04 5.28c-1.424 0-2.576-.24-3.456-.72-.88-.464-1.504-1-1.872-1.608-.368-.608-.552-1.128-.552-1.56 0-.144.056-.272.168-.384a.611.611 0 01.408-.168h2.088c.144 0 .264.032.36.096.112.08.2.216.264.408.16.432.416.792.768 1.08.368.304.936.456 1.704.456.96 0 1.664-.216 2.112-.648.464-.432.696-1.176.696-2.232V28.59c-.88 1.04-2.112 1.56-3.696 1.56-1.664 0-2.92-.512-3.768-1.536-.832-1.024-1.28-2.4-1.344-4.128l-.024-.648.024-.648c.064-1.696.52-3.064 1.368-4.104.848-1.056 2.096-1.584 3.744-1.584.848 0 1.592.16 2.232.48.64.32 1.176.76 1.608 1.32v-.96c0-.176.056-.32.168-.432a.555.555 0 01.408-.168h1.944c.16 0 .296.064.408.192a.555.555 0 01.168.408l.024 11.568c0 1.776-.496 3.152-1.488 4.128s-2.48 1.464-4.464 1.464zm-.12-7.896c.912 0 1.592-.288 2.04-.864.464-.576.72-1.28.768-2.112.016-.128.024-.392.024-.792a7.7 7.7 0 00-.024-.768c-.048-.848-.304-1.56-.768-2.136-.448-.576-1.128-.864-2.04-.864-1.728 0-2.64 1.064-2.736 3.192l-.024.576c0 1.136.2 2.048.6 2.736.416.688 1.136 1.032 2.16 1.032z" fill="#555"/><path d="M5.97 7.168c.645 0 1.171-.527 1.171-1.172 0-.645-.526-1.172-1.171-1.172a1.172 1.172 0 100 2.343zm3.626 17.837v2.249a10.673 10.673 0 016.298-2.048c2.292 0 4.473.725 6.297 2.048v-2.25c0-1.888.948-3.558 2.387-4.563a4.498 4.498 0 00-4.485-4.265h-8.399a4.498 4.498 0 00-4.484 4.265 5.565 5.565 0 012.386 4.564zm13.226-12.253H8.915v1.896h13.907v-1.896z" fill="#85B839"/><path d="M22.191 29.247a9.157 9.157 0 00-6.297-2.498c-2.361 0-4.582.89-6.298 2.498v2.055h12.595v-2.055zm3.36-22.079c.645 0 1.172-.527 1.172-1.172 0-.645-.527-1.172-1.172-1.172a1.172 1.172 0 000 2.343zM15.912 4A1.89 1.89 0 0017.8 2.11 1.89 1.89 0 0015.91.221a1.89 1.89 0 00-1.888 1.89 1.89 1.89 0 001.889 1.888z" fill="#85B839"/><path d="M27.76 20.978a4.03 4.03 0 00-4.026 4.026v7.837H8.054v-7.837a4.03 4.03 0 00-4.027-4.026A4.03 4.03 0 000 25.004a4.03 4.03 0 004.027 4.027h.771v7.07h22.191v-7.07h.772a4.03 4.03 0 004.026-4.027 4.03 4.03 0 00-4.026-4.026zM4.028 26.255a1.252 1.252 0 11.001-2.5 1.252 1.252 0 01-.001 2.5zm23.734 0a1.25 1.25 0 01-1.251-1.25 1.25 1.25 0 112.502 0 1.25 1.25 0 01-1.251 1.25zM8.698 11.209h14.337a7.29 7.29 0 001.662-2.927 6.524 6.524 0 01-3.032.757 6.523 6.523 0 01-5.8-3.548c-1.085 2.102-3.277 3.548-5.8 3.548a6.516 6.516 0 01-3.028-.743 7.392 7.392 0 001.661 2.913zm.898 26.434H8.053v1.543h1.543v-1.543zm14.138 0h-1.543v1.543h1.543v-1.543z" fill="#85B839"/></svg>