<svg width="11" height="11" fill="none" xmlns="http://www.w3.org/2000/svg"><path d="M3.938 3.857l.308-.042.143-.276 1.284-2.477s0 0 0 0l.002-.003.002-.001a.06.06 0 01.028-.006c.014 0 .025.004.03.007l.002.001h0l.001.003h0l1.285 2.476.143.276.307.042 2.875.399h0l.008.001L8.29 6.171l-.241.223.058.323.49 2.708a.058.058 0 01-.025.008c-.007 0-.015 0-.027-.006h0L5.974 8.142l-.268-.134-.269.134-2.571 1.285-.002.001a.045.045 0 01-.026.006.056.056 0 01-.024-.008l.49-2.709.058-.323-.242-.223-2.064-1.914.007-.001h0l2.875-.399zM8.6 9.44l.59-.107c.09.492-.456.86-.912.631L8.6 9.44z" fill="#fff" stroke="#7AC751" stroke-width="1.2"/></svg>